{"title":"The.Beatles.at.Shea.Stadium.1965.HQ.720p.x264.AC3.[FrOnkY]","uid":11757401,"size":799119602,"categoryP":"video","categoryS":"hd___movies","magnet":"?xt=urn:btih:f326707c49488c202da8372f68792b6f970349f8&amp;dn=The.Beatles.at.Shea.Stadium.1965.HQ.720p.x264.AC3.%5BFrOnkY%5D&amp;tr=udp%3A%2F%2Ftracker.openbittorrent.com%3A80&amp;tr=udp%3A%2F%2Fopen.demonii.com%3A1337&amp;tr=udp%3A%2F%2Ftracker.coppersurfer.tk%3A6969&amp;tr=udp%3A%2F%2Fexodus.desync.com%3A6969","seeders":5,"leechers":0,"uploader":"HDmEntEs","files":1,"time":1426455338,"description":"Hysteria for History\n\n\nThe.Beatles.At.Shea.Stadium.1965.HQ.720p.x264.AC3.[FrOnkY].mkv\n\nFormat                                   : Matroska\nFormat version                           : Version 4 / Version 2\nFile size                                : 762 MiB\nDuration                                 : 30mn 44s\nOverall bit rate                         : 3 466 Kbps\nWriting application                      : mkvmerge v6.9.1 ('Blue Panther') 32bit built on Apr 18 2014 18:15:44\nWriting library                          : libebml v1.3.0 + libmatroska v1.4.1\nAttachements                             : BeatlesShea1.jpg / BeatlesShea2.jpg / BeatlesShea3.jpg / BeatlesShea4.jpg / BeatlesShea5.jpg\n\nVideo\nID                                       : 1\nFormat                                   : AVC\nFormat/Info                              : Advanced Video Codec\nFormat profile                           : &lt;a class=&quot;__cf_email__&quot; href=&quot;/cdn-cgi/l/email-protection&quot; data-cfemail=&quot;f7bf9e909fb7bbc3d9c6&quot;&gt;[email&amp;#160;protected]&lt;/a&gt;&lt;script cf-hash='f9e31' type=&quot;text/javascript&quot;&gt;\n/* &lt;![CDATA[ */!function(){try{var t=&quot;currentScript&quot;in document?document.currentScript:function(){for(var t=document.getElementsByTagName(&quot;script&quot;),e=t.length;e--;)if(t[e].getAttribute(&quot;cf-hash&quot;))return t[e]}();if(t&amp;&amp;t.previousSibling){var e,r,n,i,c=t.previousSibling,a=c.getAttribute(&quot;data-cfemail&quot;);if(a){for(e=&quot;&quot;,r=parseInt(a.substr(0,2),16),n=2;a.length-n;n+=2)i=parseInt(a.substr(n,2),16)^r,e+=String.fromCharCode(i);e=document.createTextNode(e),c.parentNode.replaceChild(e,c)}}}catch(u){}}();/* ]]&gt; */&lt;/script&gt;\nFormat settings, CABAC                   : Yes\nFormat settings, ReFrames                : 11 frames\nCodec ID                                 : V_MPEG4/ISO/AVC\nDuration                                 : 30mn 44s\nBit rate                                 : 3 333 Kbps\nWidth                                    : 980 pixels\nHeight                                   : 720 pixels\nDisplay aspect ratio                     : 4:3\nFrame rate mode                          : Constant\nFrame rate                               : 23.976 fps\nColor space                              : YUV\nChroma subsampling                       : 4:2:0\nBit depth                                : 8 bits\nScan type                                : Progressive\nBits/(Pixel*Frame)                       : 0.197\nStream size                              : 705 MiB (92%)\nWriting library                          : x264 core 142 r2491 24e4fed\nLanguage                                 : English\nDefault                                  : Yes\nForced                                   : No\n\nAudio\nID                                       : 2\nFormat                                   : AC-3\nFormat/Info                              : Audio Coding 3\nMode extension                           : CM (complete main)\nFormat settings, Endianness              : Big\nCodec ID                                 : A_AC3\nDuration                                 : 30mn 44s\nBit rate mode                            : Constant\nBit rate                                 : 192 Kbps\nChannel(s)                               : 2 channels\nChannel positions                        : Front: L R\nSampling rate                            : 48.0 KHz\nBit depth                                : 16 bits\nStream size                              : 42.2 MiB (6%)\nLanguage                                 : English\nDefault                                  : Yes\nForced                                   : No\n\nMenu\n00:00:00.000                             : en:Chapter 01\n00:01:10.333                             : en:Chapter 02\n00:02:40.444                             : en:Chapter 03\n00:04:21.999                             : en:Chapter 04\n00:06:51.000                             : en:Chapter 05\n00:10:06.111                             : en:Chapter 06\n00:12:35.555                             : en:Chapter 07\n00:15:12.666                             : en:Chapter 08\n00:17:51.777                             : en:Chapter 09\n00:20:27.444                             : en:Chapter 10\n00:23:18.888                             : en:Chapter 11\n00:26:49.222                             : en:Chapter 12","torrent":{"xt":"urn:btih:f326707c49488c202da8372f68792b6f970349f8","amp;dn":"The.Beatles.at.Shea.Stadium.1965.HQ.720p.x264.AC3.%5BFrOnkY%5D","amp;tr":["udp%3A%2F%2Ftracker.openbittorrent.com%3A80","udp%3A%2F%2Fopen.demonii.com%3A1337","udp%3A%2F%2Ftracker.coppersurfer.tk%3A6969","udp%3A%2F%2Fexodus.desync.com%3A6969"],"infoHash":"f326707c49488c202da8372f68792b6f970349f8","infoHashBuffer":{"type":"Buffer","data":[243,38,112,124,73,72,140,32,45,168,55,47,104,121,43,111,151,3,73,248]},"announce":[],"urlList":[]}}